{
    "accessors" : [
        {
            "bufferView" : 0, 
            "componentType" : 5123, 
            "count" : 603, 
            "max" : [
                392
            ], 
            "min" : [
                0
            ], 
            "type" : "SCALAR"
        }, 
        {
            "bufferView" : 1, 
            "componentType" : 5126, 
            "count" : 393, 
            "max" : [
                1.8567370176315308, 
                3.8272812366485596, 
                1.8567370176315308
            ], 
            "min" : [
                -1.8567370176315308, 
                -1.8567370176315308, 
                -1.8567370176315308
            ], 
            "type" : "VEC3"
        }, 
        {
            "bufferView" : 2, 
            "componentType" : 5126, 
            "count" : 393, 
            "max" : [
                0.9951848387718201, 
                0.6895771622657776, 
                0.9951847791671753
            ], 
            "min" : [
                -0.9951848983764648, 
                0.0, 
                -0.9951847791671753
            ], 
            "type" : "VEC3"
        }, 
        {
            "bufferView" : 3, 
            "componentType" : 5121, 
            "count" : 36, 
            "max" : [
                23
            ], 
            "min" : [
                0
            ], 
            "type" : "SCALAR"
        }, 
        {
            "bufferView" : 4, 
            "componentType" : 5126, 
            "count" : 24, 
            "max" : [
                5.679192543029785, 
                1.0, 
                1.0
            ], 
            "min" : [
                -5.679192543029785, 
                -1.0, 
                -1.0
            ], 
            "type" : "VEC3"
        }, 
        {
            "bufferView" : 5, 
            "componentType" : 5126, 
            "count" : 24, 
            "max" : [
                1.0, 
                1.0, 
                1.0
            ], 
            "min" : [
                -1.0, 
                -1.0, 
                -1.0
            ], 
            "type" : "VEC3"
        }
    ], 
    "asset" : {
        "generator" : "Khronos Blender glTF 2.0 exporter", 
        "version" : "2.0"
    }, 
    "bufferViews" : [
        {
            "buffer" : 0, 
            "byteLength" : 1206, 
            "byteOffset" : 0, 
            "target" : 34963
        }, 
        {
            "buffer" : 0, 
            "byteLength" : 4716, 
            "byteOffset" : 1208, 
            "target" : 34962
        }, 
        {
            "buffer" : 0, 
            "byteLength" : 4716, 
            "byteOffset" : 5924, 
            "target" : 34962
        }, 
        {
            "buffer" : 0, 
            "byteLength" : 36, 
            "byteOffset" : 10640, 
            "target" : 34963
        }, 
        {
            "buffer" : 0, 
            "byteLength" : 288, 
            "byteOffset" : 10676, 
            "target" : 34962
        }, 
        {
            "buffer" : 0, 
            "byteLength" : 288, 
            "byteOffset" : 10964, 
            "target" : 34962
        }
    ], 
    "buffers" : [
        {
            "byteLength" : 11252, 
            "uri" : "afb.bin"
        }
    ], 
    "materials" : [
        {
            "name" : "Material", 
            "pbrMetallicRoughness" : {
                "baseColorFactor" : [
                    0.0, 
                    0.2794795793217357, 
                    0.640000066757203, 
                    1.0
                ], 
                "metallicFactor" : 0.0
            }
        }, 
        {
            "name" : "Material.002", 
            "pbrMetallicRoughness" : {
                "baseColorFactor" : [
                    0.004324066703380147, 
                    0.39577484720609846, 
                    0.640000066757203, 
                    1.0
                ], 
                "metallicFactor" : 0.0
            }
        }
    ], 
    "meshes" : [
        {
            "name" : "Cylinder.002", 
            "primitives" : [
                {
                    "attributes" : {
                        "NORMAL" : 2, 
                        "POSITION" : 1
                    }, 
                    "indices" : 0, 
                    "material" : 1
                }
            ]
        }, 
        {
            "name" : "Cube", 
            "primitives" : [
                {
                    "attributes" : {
                        "NORMAL" : 5, 
                        "POSITION" : 4
                    }, 
                    "indices" : 3, 
                    "material" : 0
                }
            ]
        }
    ], 
    "nodes" : [
        {
            "mesh" : 1, 
            "name" : "Cube", 
            "rotation" : [
                0.0, 
                0.0, 
                -0.020654305815696716, 
                0.9997867345809937
            ], 
            "scale" : [
                1.0, 
                0.16537928581237793, 
                1.0
            ], 
            "translation" : [
                -1.5337836742401123, 
                0.7056301236152649, 
                -0.015751361846923828
            ]
        }, 
        {
            "mesh" : 0, 
            "name" : "Cylinder", 
            "scale" : [
                -1.6840161085128784, 
                -1.9816797971725464, 
                -1.6840161085128784
            ], 
            "translation" : [
                -5.717573165893555, 
                9.377748489379883, 
                0.043985962867736816
            ]
        }
    ], 
    "scene" : 0, 
    "scenes" : [
        {
            "name" : "Scene", 
            "nodes" : [
                0, 
                1
            ]
        }
    ]
}
