{
    "accessors" : [{
        "bufferView" : 0, 
        "componentType" : 5121, 
        "count" : 186, 
        "max" : [127], 
        "min" : [0], 
        "type" : "SCALAR"
    }, {
        "bufferView" : 1, 
        "componentType" : 5126, 
        "count" : 128, 
        "max" : [1, 1, 1], 
        "min" : [-1, -1, -1], 
        "type" : "VEC3"
    }, {
        "bufferView" : 2, 
        "componentType" : 5126, 
        "count" : 128, 
        "max" : [0.890977, 0.445488, 0.890977], 
        "min" : [-0.890977, -1, -0.890977], 
        "type" : "VEC3"
    }], 
    "asset" : {
        "generator" : "Khronos Blender glTF 2.0 exporter", 
        "version" : "2.0"
    }, 
    "bufferViews" : [{
        "buffer" : 0, 
        "byteLength" : 186, 
        "byteOffset" : 0, 
        "target" : 34963
    }, {
        "buffer" : 0, 
        "byteLength" : 1536, 
        "byteOffset" : 188, 
        "target" : 34962
    }, {
        "buffer" : 0, 
        "byteLength" : 1536, 
        "byteOffset" : 1724, 
        "target" : 34962
    }], 
    "buffers" : [{
        "byteLength" : 3260, 
        "uri" : "plane_box.bin"
    }], 
    "materials" : [{
        "alphaMode" : "BLEND", 
        "name" : "Material.001", 
        "pbrMetallicRoughness" : {
            "baseColorFactor" : [0.64, 0.308394, 0.011702, 1], 
            "metallicFactor" : 0
        }
    }], 
    "meshes" : [{
        "name" : "Cone", 
        "primitives" : [{
            "attributes" : {
                "NORMAL" : 2, 
                "POSITION" : 1
            }, 
            "indices" : 0, 
            "material" : 0
        }]
    }], 
    "nodes" : [{
        "mesh" : 0, 
        "name" : "Cone", 
        "scale" : [2.29141, 2.29141, 2.29141], 
        "translation" : [-0.302349, 2.30726, 0.676807]
    }], 
    "scene" : 0, 
    "scenes" : [{
        "name" : "Scene", 
        "nodes" : [0]
    }]
}
