{"accessors":[{"bufferView":0,"componentType":5125,"count":1908,"max":[1215],"min":[0],"type":"SCALAR"},{"bufferView":1,"componentType":5126,"count":1216,"max":[1.0754529237747192,0.9712202548980713,1.0592069625854492],"min":[-1.0776870250701904,-1.0,-1.0613646507263184],"type":"VEC3"},{"bufferView":2,"componentType":5126,"count":1216,"max":[0.9895655512809753,1.0,0.99476158618927],"min":[-0.989565372467041,-1.0,-0.9951513409614563],"type":"VEC3"},{"bufferView":3,"componentType":5125,"count":20904,"max":[13933],"min":[0],"type":"SCALAR"},{"bufferView":4,"componentType":5126,"count":13934,"max":[1.0000007152557373,0.19893778860569,7.782257080078125],"min":[-1.0000005960464478,-0.2074819654226303,5.838205337524414],"type":"VEC3"},{"bufferView":5,"componentType":5126,"count":13934,"max":[0.9996462464332581,0.9999998807907104,0.9999996423721313],"min":[-0.9996470808982849,-0.9999999403953552,-0.9999991059303284],"type":"VEC3"},{"bufferView":6,"componentType":5125,"count":1536,"max":[757],"min":[0],"type":"SCALAR"},{"bufferView":7,"componentType":5126,"count":758,"max":[1.0,0.0,1.0],"min":[-1.0,-0.009999999776482582,-1.0],"type":"VEC3"},{"bufferView":8,"componentType":5126,"count":758,"max":[1.0,1.0,1.0],"min":[-1.0,-1.0,-1.0],"type":"VEC3"},{"bufferView":9,"componentType":5125,"count":1536,"max":[757],"min":[0],"type":"SCALAR"},{"bufferView":10,"componentType":5126,"count":758,"max":[1.0,0.0,1.0],"min":[-1.0,-0.009999999776482582,-1.0],"type":"VEC3"},{"bufferView":11,"componentType":5126,"count":758,"max":[1.0,1.0,1.0],"min":[-1.0,-1.0,-1.0],"type":"VEC3"},{"bufferView":12,"componentType":5125,"count":13485,"max":[8971],"min":[0],"type":"SCALAR"},{"bufferView":13,"componentType":5126,"count":8972,"max":[3.349017858505249,1.9607924222946167,3.348839282989502],"min":[-3.349017858505249,-0.21883003413677216,-9.662087440490723],"type":"VEC3"},{"bufferView":14,"componentType":5126,"count":8972,"max":[0.9999945759773254,1.0,0.9999996423721313],"min":[-1.0,-0.9998106360435486,-1.0],"type":"VEC3"},{"bufferView":15,"componentType":5125,"count":1728,"max":[1151],"min":[0],"type":"SCALAR"},{"bufferView":16,"componentType":5126,"count":1152,"max":[0.9356683492660522,1.4558849334716797,0.4985848367214203],"min":[-0.9356741905212402,-1.1733417510986328,-0.5245892405509949],"type":"VEC3"},{"bufferView":17,"componentType":5126,"count":1152,"max":[0.9924963712692261,0.21874649822711945,0.9942941665649414],"min":[-0.9925044775009155,-0.21722698211669922,-0.9949582815170288],"type":"VEC3"},{"bufferView":18,"componentType":5125,"count":42,"max":[27],"min":[0],"type":"SCALAR"},{"bufferView":19,"componentType":5126,"count":28,"max":[0.7898401021957397,0.6794789433479309,0.9222832918167114],"min":[-0.805791974067688,0.19623254239559174,-0.996502161026001],"type":"VEC3"},{"bufferView":20,"componentType":5126,"count":28,"max":[1.1902646690487018e-07,0.9886887669563293,0.1499824821949005],"min":[0.0,0.24253560602664948,-0.9701424241065979],"type":"VEC3"},{"bufferView":21,"componentType":5125,"count":498,"max":[279],"min":[0],"type":"SCALAR"},{"bufferView":22,"componentType":5126,"count":280,"max":[1.0,1.2341809272766113,1.0000102519989014],"min":[-1.0,-0.9609403610229492,-1.0445938110351562],"type":"VEC3"},{"bufferView":23,"componentType":5126,"count":280,"max":[1.0,0.9924234747886658,0.9914872050285339],"min":[-1.0,-0.9741326570510864,-0.9989479184150696],"type":"VEC3"},{"bufferView":24,"componentType":5125,"count":1920,"max":[1279],"min":[0],"type":"SCALAR"},{"bufferView":25,"componentType":5126,"count":1280,"max":[1.0890672206878662,0.9347609877586365,1.0890674591064453],"min":[-1.0890674591064453,-1.0158802270889282,-1.0890674591064453],"type":"VEC3"},{"bufferView":26,"componentType":5126,"count":1280,"max":[0.978344202041626,0.982724666595459,0.9783441424369812],"min":[-0.9783442616462708,-0.8095182776451111,-0.9783441424369812],"type":"VEC3"}],"asset":{"generator":"Khronos Blender glTF 2.0 exporter","version":"2.0"},"bufferViews":[{"buffer":0,"byteLength":7632,"byteOffset":0,"target":34963},{"buffer":0,"byteLength":14592,"byteOffset":7632,"target":34962},{"buffer":0,"byteLength":14592,"byteOffset":22224,"target":34962},{"buffer":0,"byteLength":83616,"byteOffset":36816,"target":34963},{"buffer":0,"byteLength":167208,"byteOffset":120432,"target":34962},{"buffer":0,"byteLength":167208,"byteOffset":287640,"target":34962},{"buffer":0,"byteLength":6144,"byteOffset":454848,"target":34963},{"buffer":0,"byteLength":9096,"byteOffset":460992,"target":34962},{"buffer":0,"byteLength":9096,"byteOffset":470088,"target":34962},{"buffer":0,"byteLength":6144,"byteOffset":479184,"target":34963},{"buffer":0,"byteLength":9096,"byteOffset":485328,"target":34962},{"buffer":0,"byteLength":9096,"byteOffset":494424,"target":34962},{"buffer":0,"byteLength":53940,"byteOffset":503520,"target":34963},{"buffer":0,"byteLength":107664,"byteOffset":557460,"target":34962},{"buffer":0,"byteLength":107664,"byteOffset":665124,"target":34962},{"buffer":0,"byteLength":6912,"byteOffset":772788,"target":34963},{"buffer":0,"byteLength":13824,"byteOffset":779700,"target":34962},{"buffer":0,"byteLength":13824,"byteOffset":793524,"target":34962},{"buffer":0,"byteLength":168,"byteOffset":807348,"target":34963},{"buffer":0,"byteLength":336,"byteOffset":807516,"target":34962},{"buffer":0,"byteLength":336,"byteOffset":807852,"target":34962},{"buffer":0,"byteLength":1992,"byteOffset":808188,"target":34963},{"buffer":0,"byteLength":3360,"byteOffset":810180,"target":34962},{"buffer":0,"byteLength":3360,"byteOffset":813540,"target":34962},{"buffer":0,"byteLength":7680,"byteOffset":816900,"target":34963},{"buffer":0,"byteLength":15360,"byteOffset":824580,"target":34962},{"buffer":0,"byteLength":15360,"byteOffset":839940,"target":34962}],"buffers":[{"byteLength":855300,"uri":"data:application/octet-stream;base64,"}],"materials":[{"extras":{"ms3d":{"diffuse":[0.29177066683769226,0.6239604353904724,0.799102783203125,1.0],"shininess":12.5,"specular":[1.0,1.0,1.0,1.0]}},"name":"Material_Tank","pbrMetallicRoughness":{"baseColorFactor":[0.29177066683769226,0.6239604353904724,0.799102783203125,1.0]}},{"extras":{"ms3d":{"diffuse":[0.29177066683769226,0.6239604353904724,0.799102783203125,1.0],"shininess":12.5,"specular":[1.0,1.0,1.0,1.0]}},"name":"Material_Tank.001","pbrMetallicRoughness":{"baseColorFactor":[0.29177066683769226,0.6239604353904724,0.799102783203125,1.0]}},{"extras":{"ms3d":{"diffuse":[0.29177066683769226,0.6239604353904724,0.799102783203125,1.0],"shininess":12.5,"specular":[1.0,1.0,1.0,1.0]}},"name":"Material_Transparet_blocker","pbrMetallicRoughness":{"baseColorFactor":[0.0,0.8713672757148743,0.9386858344078064,1.0]}},{"extras":{"ms3d":{"diffuse":[0.4341537058353424,0.5520114898681641,0.7304609417915344,1.0],"shininess":12.5,"specular":[1.0,1.0,1.0,1.0]}},"name":"Matt_Black_Plastic","pbrMetallicRoughness":{"baseColorFactor":[0.006995410658419132,0.006995410658419132,0.006995410658419132,1.0]}},{"extras":{"ms3d":{"diffuse":[0.4341537058353424,0.5520114898681641,0.7304609417915344,1.0],"shininess":12.5,"specular":[1.0,1.0,1.0,1.0]}},"name":"Steel","pbrMetallicRoughness":{"baseColorFactor":[0.4341537058353424,0.5520114898681641,0.7304609417915344,1.0]}},{"extras":{"ms3d":{"diffuse":[0.4341537058353424,0.5520114898681641,0.7304609417915344,1.0],"shininess":12.5,"specular":[1.0,1.0,1.0,1.0]}},"name":"White_Plastic","pbrMetallicRoughness":{"baseColorFactor":[0.9386858344078064,0.9386858344078064,1.0,1.0]}}],"meshes":[{"name":"Cylinder","primitives":[{"attributes":{"NORMAL":2,"POSITION":1},"indices":0,"material":1}]},{"name":"Plane","primitives":[{"attributes":{"NORMAL":5,"POSITION":4},"indices":3,"material":5}]},{"name":"Plane.005","primitives":[{"attributes":{"NORMAL":8,"POSITION":7},"indices":6,"material":4}]},{"name":"Plane.002","primitives":[{"attributes":{"NORMAL":11,"POSITION":10},"indices":9,"material":4}]},{"name":"Cylinder.001","primitives":[{"attributes":{"NORMAL":14,"POSITION":13},"indices":12,"material":4}]},{"name":"Cone","primitives":[{"attributes":{"NORMAL":17,"POSITION":16},"indices":15,"material":2}]},{"name":"Cube.001","primitives":[{"attributes":{"NORMAL":20,"POSITION":19},"indices":18,"material":3},{"attributes":{"NORMAL":23,"POSITION":22},"indices":21,"material":5}]},{"name":"Cylinder.002","primitives":[{"attributes":{"NORMAL":26,"POSITION":25},"indices":24,"material":0}]}],"nodes":[{"extras":{"coat3D":{}},"mesh":1,"name":"Belt","rotation":[-0.0,-0.0,-1.0,0.0],"scale":[-1.0066953897476196,-1.0066953897476196,-8.292167663574219],"translation":[5.7584230717111495e-09,0.00430698785930872,60.0]},{"name":"BezierCircle","rotation":[0.0,0.0,-0.7071065902709961,0.7071069478988647],"scale":[1.0,1.0,1.9245166778564453],"translation":[0.0,0.0,4.51652193069458]},{"mesh":5,"name":"Cone","rotation":[0.8573072552680969,0.0,-0.0,0.5148051977157593],"scale":[1.3516525030136108,1.7374428510665894,1.0598101615905762],"translation":[0.0,-0.22911816835403442,13.52513313293457]},{"extras":{"coat3D":{}},"mesh":6,"name":"Cube","rotation":[0.18942852318286896,0.0,-0.0,0.9818946123123169],"scale":[1.006700038909912,0.44539016485214233,3.999999761581421],"translation":[0.0,-2.089691162109375,14.766141891479492]},{"mesh":4,"name":"Cylinder","scale":[0.5971900224685669,3.010406255722046,0.5971900224685669],"translation":[0.0,-9.52810287475586,19.199356079101562]},{"mesh":0,"name":"Cylinder_grey_balls","scale":[3.4877114295959473,3.5787315368652344,3.4877114295959473],"translation":[0.0,-10.494467735290527,25.040767669677734]},{"mesh":3,"name":"Plane.000","rotation":[-0.46309173107147217,0.8863103985786438,-3.496245426504174e-08,6.69145805431981e-08],"scale":[-0.34928104281425476,-0.8662596344947815,-8.019115447998047],"translation":[1.1844598054885864,0.5065416097640991,3.531146287918091]},{"mesh":2,"name":"Plane.001","rotation":[2.150922853161319e-07,6.373745264909303e-08,0.8863104581832886,0.4630917012691498],"scale":[-0.34928104281425476,-0.8662595748901367,-8.019115447998047],"translation":[-1.179410696029663,0.5141152739524841,3.531146287918091]},{"extras":{"coat3D":{}},"mesh":7,"name":"Tank","scale":[2.85792875289917,5.420499801635742,2.85792875289917],"translation":[0.0,6.148842811584473,-1.3676716089248657]}],"scene":0,"scenes":[{"name":"Scene","nodes":[7,6,8,2,4,3,1,0,5]}]}
