{
    "accessors" : [{
        "bufferView" : 0, 
        "componentType" : 5121, 
        "count" : 36, 
        "max" : [23], 
        "min" : [0], 
        "type" : "SCALAR"
    }, {
        "bufferView" : 1, 
        "componentType" : 5126, 
        "count" : 24, 
        "max" : [1, 1, 1], 
        "min" : [-1, -1, -1], 
        "type" : "VEC3"
    }, {
        "bufferView" : 2, 
        "componentType" : 5126, 
        "count" : 24, 
        "max" : [1, 1, 1], 
        "min" : [-1, -1, -1], 
        "type" : "VEC3"
    }, {
        "bufferView" : 3, 
        "componentType" : 5126, 
        "count" : 4, 
        "max" : [1.20833], 
        "min" : [0.375], 
        "type" : "SCALAR"
    }, {
        "bufferView" : 4, 
        "componentType" : 5126, 
        "count" : 12, 
        "max" : [0, 2.78036, -0], 
        "min" : [0, -1.0649, -0], 
        "type" : "VEC3"
    }, {
        "bufferView" : 5, 
        "componentType" : 5126, 
        "count" : 30, 
        "max" : [1.20833], 
        "min" : [0], 
        "type" : "SCALAR"
    }, {
        "bufferView" : 6, 
        "componentType" : 5126, 
        "count" : 30, 
        "max" : [0, 0, 0.0871557, 1], 
        "min" : [0, 0, -0.0871557, 0.996195], 
        "type" : "VEC4"
    }], 
    "animations" : [{
        "channels" : [{
            "sampler" : 0, 
            "target" : {
                "node" : 2, 
                "path" : "translation"
            }
        }, {
            "sampler" : 1, 
            "target" : {
                "node" : 2, 
                "path" : "rotation"
            }
        }, {
            "sampler" : 2, 
            "target" : {
                "node" : 2, 
                "path" : "scale"
            }
        }], 
        "samplers" : [{
            "input" : 3, 
            "interpolation" : "CUBICSPLINE", 
            "output" : 4
        }, {
            "input" : 5, 
            "interpolation" : "LINEAR", 
            "output" : 6
        }, {
            "input" : -1, 
            "interpolation" : "CUBICSPLINE", 
            "output" : -1
        }]
    }], 
    "asset" : {
        "generator" : "Khronos Blender glTF 2.0 exporter", 
        "version" : "2.0"
    }, 
    "bufferViews" : [{
        "buffer" : 0, 
        "byteLength" : 36, 
        "byteOffset" : 0, 
        "target" : 34963
    }, {
        "buffer" : 0, 
        "byteLength" : 288, 
        "byteOffset" : 36, 
        "target" : 34962
    }, {
        "buffer" : 0, 
        "byteLength" : 288, 
        "byteOffset" : 324, 
        "target" : 34962
    }, {
        "buffer" : 0, 
        "byteLength" : 16, 
        "byteOffset" : 612
    }, {
        "buffer" : 0, 
        "byteLength" : 144, 
        "byteOffset" : 628
    }, {
        "buffer" : 0, 
        "byteLength" : 120, 
        "byteOffset" : 772
    }, {
        "buffer" : 0, 
        "byteLength" : 480, 
        "byteOffset" : 892
    }], 
    "buffers" : [{
        "byteLength" : 1372, 
        "uri" : "cube_animation_bouncing.bin"
    }], 
    "cameras" : [{
        "name" : "Camera", 
        "perspective" : {
            "aspectRatio" : 1.77778, 
            "yfov" : 0.50338, 
            "zfar" : 100, 
            "znear" : 0.1
        }, 
        "type" : "perspective"
    }], 
    "materials" : [{
        "name" : "Material", 
        "pbrMetallicRoughness" : {
            "baseColorFactor" : [0.545725, 1, 0.423268, 1], 
            "metallicFactor" : 0
        }
    }], 
    "meshes" : [{
        "name" : "Cube.001", 
        "primitives" : [{
            "attributes" : {
                "NORMAL" : 2, 
                "POSITION" : 1
            }, 
            "indices" : 0, 
            "material" : 0
        }]
    }], 
    "nodes" : [{
        "camera" : 0, 
        "name" : "Correction_Camera", 
        "rotation" : [-0.707107, -0, 0, 0.707107]
    }, {
        "children" : [0], 
        "name" : "Camera", 
        "rotation" : [0.483536, 0.336872, -0.208704, 0.780483], 
        "translation" : [7.48113, 5.34367, 6.50764]
    }, {
        "mesh" : 0, 
        "name" : "Cube", 
        "translation" : [0, 2.78036, -0]
    }, {
        "name" : "Lamp", 
        "rotation" : [0.169076, 0.75588, -0.272171, 0.570948], 
        "scale" : [1, 1, 1], 
        "translation" : [4.07625, 5.90386, -1.00545]
    }], 
    "scene" : 0, 
    "scenes" : [{
        "name" : "Scene", 
        "nodes" : [2, 3, 1]
    }]
}
