{"accessors":[{"bufferView":0,"componentType":5125,"count":744,"max":[383],"min":[0],"type":"SCALAR"},{"bufferView":1,"componentType":5126,"count":384,"max":[0.7836596965789795,-0.34882134199142456,0.7836596965789795],"min":[-0.7836596965789795,-0.42721420526504517,-0.7836596965789795],"type":"VEC3"},{"bufferView":2,"componentType":5126,"count":384,"max":[0.9882526993751526,0.9999999403953552,0.9882527589797974],"min":[-0.9882527589797974,-0.9999999403953552,-0.9882528781890869],"type":"VEC3"},{"bufferView":3,"componentType":5126,"count":384,"max":[0.0541040301322937,0.46805286407470703,0.0541040301322937],"min":[-0.0541040301322937,0.0,-0.0541040301322937],"type":"VEC3"},{"bufferView":4,"componentType":5126,"count":384,"max":[0.0003535151481628418,0.0030331984162330627,0.0003534555435180664],"min":[-0.0003535747528076172,0.0,-0.0003534555435180664],"type":"VEC3"},{"bufferView":5,"componentType":5126,"count":81,"max":[12.458333333333334],"min":[9.125],"type":"SCALAR"},{"bufferView":6,"componentType":5126,"count":81,"max":[1.0],"min":[0.0],"type":"SCALAR"}],"animations":[{"channels":[{"sampler":0,"target":{"node":0,"path":"weights"}}],"samplers":[{"input":5,"interpolation":"LINEAR","output":6}]}],"asset":{"generator":"Khronos Blender glTF 2.0 exporter","version":"2.0"},"bufferViews":[{"buffer":0,"byteLength":2976,"byteOffset":0,"target":34963},{"buffer":0,"byteLength":4608,"byteOffset":2976,"target":34962},{"buffer":0,"byteLength":4608,"byteOffset":7584,"target":34962},{"buffer":0,"byteLength":4608,"byteOffset":12192},{"buffer":0,"byteLength":4608,"byteOffset":16800},{"buffer":0,"byteLength":324,"byteOffset":21408},{"buffer":0,"byteLength":324,"byteOffset":21732}],"buffers":[{"byteLength":22056,"uri":"data:application/octet-stream;base64,"}],"materials":[{"extras":{"ms3d":{"diffuse":[0.39675524830818176,0.39675524830818176,0.40197786688804626,1.0],"specular":[1.0,1.0,1.0,1.0]}},"name":"Material_Ball_Grey_Level","pbrMetallicRoughness":{"baseColorFactor":[0.39675524830818176,0.39675524830818176,0.40197786688804626,1.0]}}],"meshes":[{"extras":{"ms3d":{}},"name":"Cylinder.003","primitives":[{"attributes":{"NORMAL":2,"POSITION":1},"indices":0,"material":0,"targets":[{"NORMAL":4,"POSITION":3}]}],"weights":[0.0]}],"nodes":[{"mesh":0,"name":"Cylinder_grey_level","scale":[3.4877114295959473,3.5787315368652344,3.4877114295959473],"translation":[0.0,-12.54431438446045,25.040767669677734]}],"scene":0,"scenes":[{"name":"Scene","nodes":[0]}]}
