{"accessors":[{"bufferView":0,"componentType":5125,"count":2880,"max":[481],"min":[0],"type":"SCALAR"},{"bufferView":1,"componentType":5126,"count":482,"max":[0.5433247685432434,0.5433246493339539,0.5433248281478882],"min":[-0.5433245301246643,-0.5433246493339539,-0.5433241724967957],"type":"VEC3"},{"bufferView":2,"componentType":5126,"count":482,"max":[1.0,1.0,1.0],"min":[-1.0,-1.0,-1.0],"type":"VEC3"},{"bufferView":3,"componentType":5125,"count":2880,"max":[481],"min":[0],"type":"SCALAR"},{"bufferView":4,"componentType":5126,"count":482,"max":[0.5433247685432434,0.5433246493339539,0.5433248281478882],"min":[-0.5433245301246643,-0.5433246493339539,-0.5433241724967957],"type":"VEC3"},{"bufferView":5,"componentType":5126,"count":482,"max":[1.0,1.0,1.0],"min":[-1.0,-1.0,-1.0],"type":"VEC3"},{"bufferView":6,"componentType":5125,"count":2880,"max":[481],"min":[0],"type":"SCALAR"},{"bufferView":7,"componentType":5126,"count":482,"max":[0.5433247685432434,0.5433246493339539,0.5433248281478882],"min":[-0.5433245301246643,-0.5433246493339539,-0.5433241724967957],"type":"VEC3"},{"bufferView":8,"componentType":5126,"count":482,"max":[1.0,1.0,1.0],"min":[-1.0,-1.0,-1.0],"type":"VEC3"},{"bufferView":9,"componentType":5126,"count":1,"max":[0.0],"min":[0.0],"type":"SCALAR"},{"bufferView":10,"componentType":5126,"count":1,"max":[0.0,0.0,-0.0],"min":[0.0,0.0,-0.0],"type":"VEC3"},{"bufferView":11,"componentType":5126,"count":1,"max":[0.0],"min":[0.0],"type":"SCALAR"},{"bufferView":12,"componentType":5126,"count":1,"max":[6.663933405093303e-09,-3.998359865420298e-09,-0.1788835972547531],"min":[6.663933405093303e-09,-3.998359865420298e-09,-0.1788835972547531],"type":"VEC3"},{"bufferView":13,"componentType":5126,"count":1,"max":[0.0],"min":[0.0],"type":"SCALAR"},{"bufferView":14,"componentType":5126,"count":1,"max":[0.5065072178840637,0.2750442624092102,-0.6559987664222717,0.48730555176734924],"min":[0.5065072178840637,0.2750442624092102,-0.6559987664222717,0.48730555176734924],"type":"VEC4"},{"bufferView":15,"componentType":5126,"count":1,"max":[0.0],"min":[0.0],"type":"SCALAR"},{"bufferView":16,"componentType":5126,"count":1,"max":[0.3500797748565674,0.350079745054245,0.3500797152519226],"min":[0.3500797748565674,0.350079745054245,0.3500797152519226],"type":"VEC3"},{"bufferView":17,"componentType":5126,"count":1,"max":[0.0],"min":[0.0],"type":"SCALAR"},{"bufferView":18,"componentType":5126,"count":1,"max":[0.005819023121148348,-0.004103574901819229,-0.0044061727821826935],"min":[0.005819023121148348,-0.004103574901819229,-0.0044061727821826935],"type":"VEC3"},{"bufferView":19,"componentType":5126,"count":1,"max":[0.0],"min":[0.0],"type":"SCALAR"},{"bufferView":20,"componentType":5126,"count":1,"max":[0.8220158219337463,-0.15009140968322754,-0.10570640861988068,0.5390627384185791],"min":[0.8220158219337463,-0.15009140968322754,-0.10570640861988068,0.5390627384185791],"type":"VEC4"},{"bufferView":21,"componentType":5126,"count":1,"max":[0.0],"min":[0.0],"type":"SCALAR"},{"bufferView":22,"componentType":5126,"count":1,"max":[0.350079745054245,0.350079745054245,0.350079745054245],"min":[0.350079745054245,0.350079745054245,0.350079745054245],"type":"VEC3"}],"animations":[{"channels":[{"sampler":0,"target":{"node":0,"path":"translation"}},{"sampler":1,"target":{"node":1,"path":"translation"}},{"sampler":2,"target":{"node":1,"path":"rotation"}},{"sampler":3,"target":{"node":1,"path":"scale"}},{"sampler":4,"target":{"node":2,"path":"translation"}},{"sampler":5,"target":{"node":2,"path":"rotation"}},{"sampler":6,"target":{"node":2,"path":"scale"}}],"samplers":[{"input":9,"interpolation":"LINEAR","output":10},{"input":11,"interpolation":"LINEAR","output":12},{"input":13,"interpolation":"LINEAR","output":14},{"input":15,"interpolation":"LINEAR","output":16},{"input":17,"interpolation":"LINEAR","output":18},{"input":19,"interpolation":"LINEAR","output":20},{"input":21,"interpolation":"LINEAR","output":22}]}],"asset":{"generator":"Khronos Blender glTF 2.0 exporter","version":"2.0"},"bufferViews":[{"buffer":0,"byteLength":11520,"byteOffset":0,"target":34963},{"buffer":0,"byteLength":5784,"byteOffset":11520,"target":34962},{"buffer":0,"byteLength":5784,"byteOffset":17304,"target":34962},{"buffer":0,"byteLength":11520,"byteOffset":23088,"target":34963},{"buffer":0,"byteLength":5784,"byteOffset":34608,"target":34962},{"buffer":0,"byteLength":5784,"byteOffset":40392,"target":34962},{"buffer":0,"byteLength":11520,"byteOffset":46176,"target":34963},{"buffer":0,"byteLength":5784,"byteOffset":57696,"target":34962},{"buffer":0,"byteLength":5784,"byteOffset":63480,"target":34962},{"buffer":0,"byteLength":4,"byteOffset":69264},{"buffer":0,"byteLength":12,"byteOffset":69268},{"buffer":0,"byteLength":4,"byteOffset":69280},{"buffer":0,"byteLength":12,"byteOffset":69284},{"buffer":0,"byteLength":4,"byteOffset":69296},{"buffer":0,"byteLength":16,"byteOffset":69300},{"buffer":0,"byteLength":4,"byteOffset":69316},{"buffer":0,"byteLength":12,"byteOffset":69320},{"buffer":0,"byteLength":4,"byteOffset":69332},{"buffer":0,"byteLength":12,"byteOffset":69336},{"buffer":0,"byteLength":4,"byteOffset":69348},{"buffer":0,"byteLength":16,"byteOffset":69352},{"buffer":0,"byteLength":4,"byteOffset":69368},{"buffer":0,"byteLength":12,"byteOffset":69372}],"buffers":[{"byteLength":69384,"uri":"data:application/octet-stream;base64,"}],"materials":[{"extras":{"ms3d":{"diffuse":[0.39675524830818176,0.39675524830818176,0.40197786688804626,1.0],"specular":[1.0,1.0,1.0,1.0]}},"name":"Material_Ball_Grey","pbrMetallicRoughness":{"baseColorFactor":[0.39675524830818176,0.39675524830818176,0.40197786688804626,1.0]}}],"meshes":[{"extras":{"ms3d":{}},"name":"Sphere.026","primitives":[{"attributes":{"NORMAL":2,"POSITION":1},"indices":0,"material":0}]},{"extras":{"ms3d":{}},"name":"Sphere.020","primitives":[{"attributes":{"NORMAL":5,"POSITION":4},"indices":3,"material":0}]},{"extras":{"ms3d":{}},"name":"Sphere.028","primitives":[{"attributes":{"NORMAL":8,"POSITION":7},"indices":6,"material":0}]}],"nodes":[{"mesh":0,"name":"Ball3.011_x0","rotation":[-0.10570652037858963,0.5390627384185791,-0.8220159411430359,0.15009154379367828],"scale":[0.3500797748565674,0.350079745054245,0.3500797152519226],"translation":[0.6237081289291382,-2.766730785369873,17.39447021484375]},{"mesh":2,"name":"Ball3.011_x1","rotation":[-0.10570652037858963,0.5390627384185791,-0.8220159411430359,0.15009154379367828],"scale":[0.3500797748565674,0.350079745054245,0.3500797152519226],"translation":[-0.0015379786491394043,-2.766730785369873,17.39447021484375]},{"mesh":1,"name":"Ball3.011_x2","rotation":[-0.16516177356243134,0.07365638762712479,-0.9802415370941162,0.08014340698719025],"scale":[0.3500797748565674,0.350079745054245,0.350079745054245],"translation":[-0.6196042895317078,-2.7613000869750977,17.41480255126953]},{"name":"NurbsPath.000","rotation":[0.0,0.7071068286895752,-0.0,0.7071067690849304],"scale":[3.4952681064605713,3.4952681064605713,3.4952681064605713],"translation":[0.6237084269523621,-2.766730785369873,24.385005950927734]},{"name":"NurbsPath.001","rotation":[0.0,0.7071068286895752,-0.0,0.7071067690849304],"scale":[3.4952681064605713,3.4952681064605713,3.4952681064605713],"translation":[-0.0015636086463928223,-2.766730785369873,24.385005950927734]},{"name":"NurbsPath.002","rotation":[0.0,0.7071068286895752,-0.0,0.7071067690849304],"scale":[3.4952681064605713,3.4952681064605713,3.4952681064605713],"translation":[-0.599264919757843,-2.766730785369873,24.385005950927734]}],"scene":0,"scenes":[{"name":"Scene","nodes":[3,0,1,4,5,2]}]}
