{"accessors":[{"bufferView":0,"componentType":5121,"count":282,"max":[159],"min":[0],"type":"SCALAR"},{"bufferView":1,"componentType":5126,"count":160,"max":[3.0948147773742676,0.35546955466270447,3.0948374271392822],"min":[-3.0948147773742676,-0.45004990696907043,-3.094792366027832],"type":"VEC3"},{"bufferView":2,"componentType":5126,"count":160,"max":[0.3484970033168793,-0.9366676807403564,0.348533034324646],"min":[-0.3484969437122345,-1.0,-0.3484550416469574],"type":"VEC3"}],"animations":[{"channels":[{"sampler":0,"target":{"node":0,"path":"translation"}},{"sampler":1,"target":{"node":0,"path":"rotation"}},{"sampler":2,"target":{"node":0,"path":"scale"}}],"samplers":[{"input":-1,"interpolation":"LINEAR","output":-1},{"input":-1,"interpolation":"LINEAR","output":-1},{"input":-1,"interpolation":"LINEAR","output":-1}]}],"asset":{"generator":"Khronos Blender glTF 2.0 exporter","version":"2.0"},"bufferViews":[{"buffer":0,"byteLength":282,"byteOffset":0,"target":34963},{"buffer":0,"byteLength":1920,"byteOffset":284,"target":34962},{"buffer":0,"byteLength":1920,"byteOffset":2204,"target":34962}],"buffers":[{"byteLength":4124,"uri":"data:application/octet-stream;base64,"}],"materials":[{"extras":{"ms3d":{"diffuse":[0.9559733867645264,1.0,0.0,1.0],"name":"","specular":[1.0,1.0,1.0,1.0]}},"name":"Material_Ball_Yellow","pbrMetallicRoughness":{"baseColorFactor":[0.9559733867645264,1.0,0.0,1.0]}}],"meshes":[{"extras":{"ms3d":{}},"name":"Cylinder.003","primitives":[{"attributes":{"NORMAL":2,"POSITION":1},"indices":0,"material":0}]}],"nodes":[{"mesh":0,"name":"I_Output_full","scale":[0.5971900224685669,3.010406255722046,0.5971900224685669],"translation":[0.0,-4.991394519805908,19.199249267578125]}],"scene":0,"scenes":[{"name":"Scene","nodes":[0]}]}
