{"accessors":[{"bufferView":0,"componentType":5125,"count":744,"max":[383],"min":[0],"type":"SCALAR"},{"bufferView":1,"componentType":5126,"count":384,"max":[3.0948147773742676,0.35546955466270447,3.0948374271392822],"min":[-3.0948147773742676,-0.45004990696907043,-3.094792366027832],"type":"VEC3"},{"bufferView":2,"componentType":5126,"count":384,"max":[0.3484970033168793,1.0,0.348533034324646],"min":[-0.3484969437122345,-1.0,-0.3484550416469574],"type":"VEC3"}],"asset":{"generator":"Khronos Blender glTF 2.0 exporter","version":"2.0"},"bufferViews":[{"buffer":0,"byteLength":2976,"byteOffset":0,"target":34963},{"buffer":0,"byteLength":4608,"byteOffset":2976,"target":34962},{"buffer":0,"byteLength":4608,"byteOffset":7584,"target":34962}],"buffers":[{"byteLength":12192,"uri":"data:application/octet-stream;base64,"}],"materials":[{"extras":{"ms3d":{"diffuse":[0.9559733867645264,1.0,0.0,1.0],"name":"","specular":[1.0,1.0,1.0,1.0]}},"name":"Material_Ball_Yellow","pbrMetallicRoughness":{"baseColorFactor":[0.9559733867645264,1.0,0.0,1.0]}}],"meshes":[{"name":"Cylinder.003","primitives":[{"attributes":{"NORMAL":2,"POSITION":1},"indices":0,"material":0}]}],"nodes":[{"mesh":0,"name":"I_Output_full","scale":[0.5971900224685669,3.010406255722046,0.5971900224685669],"translation":[0.0,-4.991394519805908,19.199249267578125]}],"scene":0,"scenes":[{"name":"Scene","nodes":[0]}]}
