{"accessors":[{"bufferView":0,"componentType":5125,"count":2304,"max":[1303],"min":[0],"type":"SCALAR"},{"bufferView":1,"componentType":5126,"count":1304,"max":[1.1446391344070435,1.0,1.0000003576278687],"min":[-1.000000238418579,-1.0,-1.000000238418579],"type":"VEC3"},{"bufferView":2,"componentType":5126,"count":1304,"max":[1.0,1.0,1.0],"min":[-1.0,-1.0,-1.0],"type":"VEC3"},{"bufferView":3,"componentType":5126,"count":40,"max":[1.625],"min":[0.0],"type":"SCALAR"},{"bufferView":4,"componentType":5126,"count":40,"max":[0.0,1.7802047729492188,-0.0],"min":[0.0,1.7802047729492188,-0.0],"type":"VEC3"},{"bufferView":5,"componentType":5126,"count":40,"max":[1.625],"min":[0.0],"type":"SCALAR"},{"bufferView":6,"componentType":5126,"count":40,"max":[0.0,0.0,-0.0,1.0],"min":[0.0,0.0,-0.0,1.0],"type":"VEC4"},{"bufferView":7,"componentType":5126,"count":40,"max":[1.625],"min":[0.0],"type":"SCALAR"},{"bufferView":8,"componentType":5126,"count":40,"max":[1.0,1.0,1.0],"min":[1.0,1.0,1.0],"type":"VEC3"},{"bufferView":9,"componentType":5126,"count":40,"max":[1.625],"min":[0.0],"type":"SCALAR"},{"bufferView":10,"componentType":5126,"count":40,"max":[1.0],"min":[0.0],"type":"SCALAR"}],"animations":[{"channels":[{"sampler":0,"target":{"node":2,"path":"translation"}},{"sampler":1,"target":{"node":2,"path":"rotation"}},{"sampler":2,"target":{"node":2,"path":"scale"}},{"sampler":3,"target":{"node":2,"path":"weights"}}],"samplers":[{"input":3,"interpolation":"LINEAR","output":4},{"input":5,"interpolation":"LINEAR","output":6},{"input":7,"interpolation":"LINEAR","output":8},{"input":9,"interpolation":"LINEAR","output":10}]}],"asset":{"generator":"Khronos Blender glTF 2.0 exporter","version":"2.0"},"bufferViews":[{"buffer":0,"byteLength":9216,"byteOffset":0,"target":34963},{"buffer":0,"byteLength":15648,"byteOffset":9216,"target":34962},{"buffer":0,"byteLength":15648,"byteOffset":24864,"target":34962},{"buffer":0,"byteLength":160,"byteOffset":40512},{"buffer":0,"byteLength":480,"byteOffset":40672},{"buffer":0,"byteLength":160,"byteOffset":41152},{"buffer":0,"byteLength":640,"byteOffset":41312},{"buffer":0,"byteLength":160,"byteOffset":41952},{"buffer":0,"byteLength":480,"byteOffset":42112},{"buffer":0,"byteLength":160,"byteOffset":42592},{"buffer":0,"byteLength":160,"byteOffset":42752}],"buffers":[{"byteLength":42912,"uri":"data:application/octet-stream;base64,"}],"cameras":[{"name":"Camera","perspective":{"aspectRatio":1.7777777777777777,"yfov":0.5033799372418416,"zfar":100.0,"znear":0.10000000149011612},"type":"perspective"}],"extensions":{"KHR_lights_cmn":{"lights":[{"color":[1.0,1.0,1.0],"name":"Lamp","positional":{"quadraticAttenuation":0.03333335240683057},"profile":"CMN","type":"point"},{"color":[0.0,0.0,0.0],"name":"Ambient_Scene","type":"ambient"}]}},"extensionsRequired":["KHR_materials_cmnBlinnPhong","KHR_lights_cmn"],"extensionsUsed":["KHR_materials_cmnBlinnPhong","KHR_lights_cmn"],"materials":[{"emissiveFactor":[0.0,0.0,0.0],"extensions":{"KHR_materials_cmnBlinnPhong":{"diffuseFactor":[0.6392822360885475,0.001942572957911684,0.0,1.0],"shininessFactor":12.298039215686275,"specularFactor":[0.5,0.5,0.5]}},"extras":{"ms3d":{"diffuse":[0.799102783203125,0.0024282161612063646,0.0,1.0]}},"name":"Material"}],"meshes":[{"name":"Cube","primitives":[{"attributes":{"NORMAL":2,"POSITION":1},"indices":0,"material":0}]}],"nodes":[{"camera":0,"name":"Correction_Camera","rotation":[-0.7071067690849304,-0.0,0.0,0.7071067690849304]},{"children":[0],"name":"Camera","rotation":[0.483536034822464,0.33687159419059753,-0.20870360732078552,0.7804827094078064],"translation":[7.481131553649902,5.34366512298584,6.5076398849487305]},{"mesh":0,"name":"Cube","translation":[0.0,1.7802047729492188,-0.0]},{"extensions":{"KHR_lights_cmn":{"light":0}},"name":"Correction_Lamp","rotation":[-0.7071067690849304,-0.0,0.0,0.7071067690849304]},{"children":[3,3],"name":"Lamp","rotation":[0.16907575726509094,0.7558802962303162,-0.27217137813568115,0.570947527885437],"scale":[1.0,1.0,0.9999999403953552],"translation":[4.076245307922363,5.903861999511719,-1.0054539442062378]}],"scene":0,"scenes":[{"extensions":{"KHR_lights_cmn":{"light":1}},"name":"Scene","nodes":[2,4,1]}]}
