{"accessors":[{"bufferView":0,"componentType":5125,"count":372,"max":[191],"min":[0],"type":"SCALAR"},{"bufferView":1,"componentType":5126,"count":192,"max":[0.7347978353500366,0.2749778628349304,0.7347978949546814],"min":[-0.7347978353500366,-0.27497780323028564,-0.7347978353500366],"type":"VEC3"},{"bufferView":2,"componentType":5126,"count":192,"max":[0.8082815408706665,1.0,0.8082815408706665],"min":[-0.8082816004753113,-0.9999999403953552,-0.8082816004753113],"type":"VEC3"},{"bufferView":3,"componentType":5126,"count":192,"max":[0.3968549072742462,0.0,0.3968549072742462],"min":[-0.3968549072742462,-0.5497907996177673,-0.3968549370765686],"type":"VEC3"},{"bufferView":4,"componentType":5126,"count":192,"max":[0.0792396068572998,0.13168293237686157,0.07926422357559204],"min":[-0.0792841911315918,0.0,-0.07925570011138916],"type":"VEC3"},{"bufferView":5,"componentType":5126,"count":1,"max":[4.958333333333333],"min":[4.958333333333333],"type":"SCALAR"},{"bufferView":6,"componentType":5126,"count":3,"max":[0.0],"min":[0.0],"type":"SCALAR"}],"animations":[{"channels":[{"sampler":0,"target":{"node":0,"path":"weights"}}],"samplers":[{"input":5,"interpolation":"CUBICSPLINE","output":6}]}],"asset":{"generator":"Khronos Blender glTF 2.0 exporter","version":"2.0"},"bufferViews":[{"buffer":0,"byteLength":1488,"byteOffset":0,"target":34963},{"buffer":0,"byteLength":2304,"byteOffset":1488,"target":34962},{"buffer":0,"byteLength":2304,"byteOffset":3792,"target":34962},{"buffer":0,"byteLength":2304,"byteOffset":6096},{"buffer":0,"byteLength":2304,"byteOffset":8400},{"buffer":0,"byteLength":4,"byteOffset":10704},{"buffer":0,"byteLength":12,"byteOffset":10708}],"buffers":[{"byteLength":10720,"uri":"data:application/octet-stream;base64,"}],"materials":[{"extras":{"ms3d":{"alphamap":"","diffuse":[0.9559733867645264,1.0,0.0,1.0],"emissive":[0.0,0.0,0.0,1.0],"name":"","shininess":12.5,"specular":[1.0,1.0,1.0,1.0],"texture":"","transparency":0.0}},"name":"Material_Tank_Status.001","pbrMetallicRoughness":{"baseColorFactor":[0.9559733867645264,1.0,0.0,1.0]}}],"meshes":[{"extras":{"ms3d":{}},"name":"Cylinder.001","primitives":[{"attributes":{"NORMAL":2,"POSITION":1},"indices":0,"material":0,"targets":[{"NORMAL":4,"POSITION":3}]}],"weights":[0.0]}],"nodes":[{"mesh":0,"name":"Tank_Balls_level","scale":[2.85792875289917,5.420499801635742,2.85792875289917],"translation":[0.0,2.0956783294677734,-1.3676716089248657]}],"scene":0,"scenes":[{"name":"Scene","nodes":[0]}]}
