{"accessors":[{"bufferView":0,"componentType":5121,"count":372,"max":[191],"min":[0],"type":"SCALAR"},{"bufferView":1,"componentType":5126,"count":192,"max":[0.4368665814399719,-0.13688640296459198,0.4368666112422943],"min":[-0.4368666112422943,-0.27497780323028564,-0.43686649203300476],"type":"VEC3"},{"bufferView":2,"componentType":5126,"count":192,"max":[0.810108482837677,1.0,0.8101085424423218],"min":[-0.8101085424423218,-0.9999999403953552,-0.8101086616516113],"type":"VEC3"},{"bufferView":3,"componentType":5126,"count":2,"max":[4.958333333333333],"min":[0.0],"type":"SCALAR"},{"bufferView":4,"componentType":5126,"count":6,"max":[0.0,2.0956783294677734,-0.0],"min":[0.0,0.0,-1.3676716089248657],"type":"VEC3"},{"bufferView":5,"componentType":5126,"count":120,"max":[4.958333333333333],"min":[0.0],"type":"SCALAR"},{"bufferView":6,"componentType":5126,"count":120,"max":[0.0,0.0,-0.0,1.0],"min":[0.0,0.0,-0.0,1.0],"type":"VEC4"},{"bufferView":7,"componentType":5126,"count":2,"max":[4.958333333333333],"min":[0.0],"type":"SCALAR"},{"bufferView":8,"componentType":5126,"count":6,"max":[2.85792875289917,5.420499801635742,2.85792875289917],"min":[0.0,0.0,0.0],"type":"VEC3"},{"bufferView":9,"componentType":5126,"count":2,"max":[9.125],"min":[0.0],"type":"SCALAR"},{"bufferView":10,"componentType":5126,"count":6,"max":[1.0],"min":[0.0],"type":"SCALAR"}],"animations":[{"channels":[{"sampler":0,"target":{"node":0,"path":"translation"}},{"sampler":1,"target":{"node":0,"path":"rotation"}},{"sampler":2,"target":{"node":0,"path":"scale"}},{"sampler":3,"target":{"node":0,"path":"weights"}}],"samplers":[{"input":3,"interpolation":"CUBICSPLINE","output":4},{"input":5,"interpolation":"LINEAR","output":6},{"input":7,"interpolation":"CUBICSPLINE","output":8},{"input":9,"interpolation":"CUBICSPLINE","output":10}]}],"asset":{"generator":"Khronos Blender glTF 2.0 exporter","version":"2.0"},"bufferViews":[{"buffer":0,"byteLength":372,"byteOffset":0,"target":34963},{"buffer":0,"byteLength":2304,"byteOffset":372,"target":34962},{"buffer":0,"byteLength":2304,"byteOffset":2676,"target":34962},{"buffer":0,"byteLength":8,"byteOffset":4980},{"buffer":0,"byteLength":72,"byteOffset":4988},{"buffer":0,"byteLength":480,"byteOffset":5060},{"buffer":0,"byteLength":1920,"byteOffset":5540},{"buffer":0,"byteLength":8,"byteOffset":7460},{"buffer":0,"byteLength":72,"byteOffset":7468},{"buffer":0,"byteLength":8,"byteOffset":7540},{"buffer":0,"byteLength":24,"byteOffset":7548}],"buffers":[{"byteLength":7572,"uri":"data:application/octet-stream;base64,"}],"materials":[{"extras":{"ms3d":{"alphamap":"","diffuse":[0.9559733867645264,1.0,0.0,1.0],"emissive":[0.0,0.0,0.0,1.0],"name":"","shininess":12.5,"specular":[1.0,1.0,1.0,1.0],"texture":"","transparency":0.0}},"name":"Material_Tank_Status.001","pbrMetallicRoughness":{"baseColorFactor":[0.9559733867645264,1.0,0.0,1.0]}}],"meshes":[{"name":"Cylinder.001","primitives":[{"attributes":{"NORMAL":2,"POSITION":1},"indices":0,"material":0}]}],"nodes":[{"mesh":0,"name":"Tank_Balls_level","scale":[2.85792875289917,5.420499801635742,2.85792875289917],"translation":[0.0,2.0956783294677734,-1.3676716089248657]}],"scene":0,"scenes":[{"name":"Scene","nodes":[0]}]}
