{"accessors":[{"bufferView":0,"componentType":5125,"count":1896,"max":[1151],"min":[0],"type":"SCALAR"},{"bufferView":1,"componentType":5126,"count":1152,"max":[0.9292687177658081,0.07845774292945862,0.9292687773704529],"min":[-0.9292687177658081,-1.0158802270889282,-0.9292687773704529],"type":"VEC3"},{"bufferView":2,"componentType":5126,"count":1152,"max":[0.9783128499984741,1.0,0.9783128499984741],"min":[-0.9783129692077637,-1.0,-0.9783129096031189],"type":"VEC3"}],"asset":{"generator":"Khronos Blender glTF 2.0 exporter","version":"2.0"},"bufferViews":[{"buffer":0,"byteLength":7584,"byteOffset":0,"target":34963},{"buffer":0,"byteLength":13824,"byteOffset":7584,"target":34962},{"buffer":0,"byteLength":13824,"byteOffset":21408,"target":34962}],"buffers":[{"byteLength":35232,"uri":"data:application/octet-stream;base64,"}],"materials":[{"extras":{"ms3d":{"alphamap":"","diffuse":[0.9559733867645264,1.0,0.0,1.0],"emissive":[0.0,0.0,0.0,1.0],"name":"","shininess":12.5,"specular":[1.0,1.0,1.0,1.0],"texture":"","transparency":0.0}},"name":"Material_Tank_Status.001","pbrMetallicRoughness":{"baseColorFactor":[0.9559733867645264,1.0,0.0,1.0]}}],"meshes":[{"name":"Cylinder.000","primitives":[{"attributes":{"NORMAL":2,"POSITION":1},"indices":0,"material":0}]}],"nodes":[{"extras":{"coat3D":{}},"mesh":0,"name":"Tank.001","scale":[2.865699529647827,5.435238361358643,2.865699529647827],"translation":[0.0,6.148842811584473,-1.3676716089248657]}],"scene":0,"scenes":[{"name":"Scene","nodes":[0]}]}
